<mxfile host="app.diagrams.net" modified="2024-01-09T06:28:42.693Z" agent="Mozilla/5.0 (Windows NT 10.0; Win64; x64) AppleWebKit/537.36 (KHTML, like Gecko) Chrome/120.0.0.0 Safari/537.36" etag="GQxJXt1KGcCnQb2DWiEV" version="22.1.17" type="github">
  <diagram name="Page-1" id="5XWUrGCGIJ8cBkaRWQQa">
    <mxGraphModel dx="864" dy="459" grid="1" gridSize="10" guides="1" tooltips="1" connect="1" arrows="1" fold="1" page="1" pageScale="1" pageWidth="850" pageHeight="1100" background="#ffffff" math="0" shadow="0">
      <root>
        <mxCell id="0" />
        <mxCell id="1" parent="0" />
        <mxCell id="jXuYiFfG_EMtr4uCFGDQ-23" value="VPC" style="points=[[0,0],[0.25,0],[0.5,0],[0.75,0],[1,0],[1,0.25],[1,0.5],[1,0.75],[1,1],[0.75,1],[0.5,1],[0.25,1],[0,1],[0,0.75],[0,0.5],[0,0.25]];outlineConnect=0;gradientColor=none;html=1;whiteSpace=wrap;fontSize=12;fontStyle=0;container=1;pointerEvents=0;collapsible=0;recursiveResize=0;shape=mxgraph.aws4.group;grIcon=mxgraph.aws4.group_vpc2;strokeColor=#8C4FFF;fillColor=none;verticalAlign=top;align=left;spacingLeft=30;fontColor=#AAB7B8;dashed=0;" parent="1" vertex="1">
          <mxGeometry x="30" y="280" width="750" height="450" as="geometry" />
        </mxCell>
        <mxCell id="jXuYiFfG_EMtr4uCFGDQ-24" value="Public subnet" style="points=[[0,0],[0.25,0],[0.5,0],[0.75,0],[1,0],[1,0.25],[1,0.5],[1,0.75],[1,1],[0.75,1],[0.5,1],[0.25,1],[0,1],[0,0.75],[0,0.5],[0,0.25]];outlineConnect=0;gradientColor=none;html=1;whiteSpace=wrap;fontSize=12;fontStyle=0;container=1;pointerEvents=0;collapsible=0;recursiveResize=0;shape=mxgraph.aws4.group;grIcon=mxgraph.aws4.group_security_group;grStroke=0;strokeColor=#7AA116;fillColor=#F2F6E8;verticalAlign=top;align=left;spacingLeft=30;fontColor=#248814;dashed=0;" parent="jXuYiFfG_EMtr4uCFGDQ-23" vertex="1">
          <mxGeometry x="40" y="20" width="280" height="150" as="geometry" />
        </mxCell>
        <mxCell id="jXuYiFfG_EMtr4uCFGDQ-33" value="" style="outlineConnect=0;dashed=0;verticalLabelPosition=bottom;verticalAlign=top;align=center;html=1;shape=mxgraph.aws3.vpc_nat_gateway;fillColor=#F58534;gradientColor=none;" parent="jXuYiFfG_EMtr4uCFGDQ-24" vertex="1">
          <mxGeometry x="60" y="40" width="40" height="50" as="geometry" />
        </mxCell>
        <mxCell id="jXuYiFfG_EMtr4uCFGDQ-30" value="Application Load Balancer" style="sketch=0;outlineConnect=0;fontColor=#232F3E;gradientColor=none;strokeColor=#ffffff;fillColor=#232F3E;dashed=0;verticalLabelPosition=middle;verticalAlign=bottom;align=center;html=1;whiteSpace=wrap;fontSize=10;fontStyle=1;spacing=3;shape=mxgraph.aws4.productIcon;prIcon=mxgraph.aws4.application_load_balancer;shadow=0;" parent="jXuYiFfG_EMtr4uCFGDQ-24" vertex="1">
          <mxGeometry x="190" y="20" width="56.5" height="100" as="geometry" />
        </mxCell>
        <mxCell id="jXuYiFfG_EMtr4uCFGDQ-25" value="Public subnet" style="points=[[0,0],[0.25,0],[0.5,0],[0.75,0],[1,0],[1,0.25],[1,0.5],[1,0.75],[1,1],[0.75,1],[0.5,1],[0.25,1],[0,1],[0,0.75],[0,0.5],[0,0.25]];outlineConnect=0;gradientColor=none;html=1;whiteSpace=wrap;fontSize=12;fontStyle=0;container=1;pointerEvents=0;collapsible=0;recursiveResize=0;shape=mxgraph.aws4.group;grIcon=mxgraph.aws4.group_security_group;grStroke=0;strokeColor=#7AA116;fillColor=#F2F6E8;verticalAlign=top;align=left;spacingLeft=30;fontColor=#248814;dashed=0;" parent="jXuYiFfG_EMtr4uCFGDQ-23" vertex="1">
          <mxGeometry x="400" y="20" width="290" height="150" as="geometry" />
        </mxCell>
        <mxCell id="jXuYiFfG_EMtr4uCFGDQ-32" value="Application Load Balancer" style="sketch=0;outlineConnect=0;fontColor=#232F3E;gradientColor=none;strokeColor=#ffffff;fillColor=#232F3E;dashed=0;verticalLabelPosition=middle;verticalAlign=bottom;align=center;html=1;whiteSpace=wrap;fontSize=10;fontStyle=1;spacing=3;shape=mxgraph.aws4.productIcon;prIcon=mxgraph.aws4.application_load_balancer;" parent="jXuYiFfG_EMtr4uCFGDQ-25" vertex="1">
          <mxGeometry x="30" y="20" width="56.5" height="100" as="geometry" />
        </mxCell>
        <mxCell id="jXuYiFfG_EMtr4uCFGDQ-44" value="" style="outlineConnect=0;dashed=0;verticalLabelPosition=bottom;verticalAlign=top;align=center;html=1;shape=mxgraph.aws3.vpc_nat_gateway;fillColor=#F58534;gradientColor=none;" parent="jXuYiFfG_EMtr4uCFGDQ-25" vertex="1">
          <mxGeometry x="200" y="40" width="40" height="50" as="geometry" />
        </mxCell>
        <mxCell id="jXuYiFfG_EMtr4uCFGDQ-78" value="Private subnet" style="points=[[0,0],[0.25,0],[0.5,0],[0.75,0],[1,0],[1,0.25],[1,0.5],[1,0.75],[1,1],[0.75,1],[0.5,1],[0.25,1],[0,1],[0,0.75],[0,0.5],[0,0.25]];outlineConnect=0;gradientColor=none;html=1;whiteSpace=wrap;fontSize=12;fontStyle=0;container=1;pointerEvents=0;collapsible=0;recursiveResize=0;shape=mxgraph.aws4.group;grIcon=mxgraph.aws4.group_security_group;grStroke=0;strokeColor=#00A4A6;fillColor=#E6F6F7;verticalAlign=top;align=left;spacingLeft=30;fontColor=#147EBA;dashed=0;" parent="jXuYiFfG_EMtr4uCFGDQ-25" vertex="1">
          <mxGeometry y="220" width="300" height="130" as="geometry" />
        </mxCell>
        <mxCell id="jXuYiFfG_EMtr4uCFGDQ-79" value="" style="outlineConnect=0;dashed=0;verticalLabelPosition=bottom;verticalAlign=top;align=center;html=1;shape=mxgraph.aws3.ec2;fillColor=#F58534;gradientColor=none;" parent="jXuYiFfG_EMtr4uCFGDQ-78" vertex="1">
          <mxGeometry x="90" y="18.5" width="76.5" height="93" as="geometry" />
        </mxCell>
        <mxCell id="jXuYiFfG_EMtr4uCFGDQ-73" value="Security group" style="fillColor=none;strokeColor=#DD3522;verticalAlign=top;fontStyle=0;fontColor=#DD3522;whiteSpace=wrap;html=1;" parent="jXuYiFfG_EMtr4uCFGDQ-78" vertex="1">
          <mxGeometry x="75" y="-18.5" width="130" height="130" as="geometry" />
        </mxCell>
        <mxCell id="jXuYiFfG_EMtr4uCFGDQ-65" value="" style="rounded=1;arcSize=10;dashed=1;strokeColor=#F59D56;fillColor=none;gradientColor=none;dashPattern=8 4;strokeWidth=2;direction=south;" parent="jXuYiFfG_EMtr4uCFGDQ-78" vertex="1">
          <mxGeometry x="-370" y="-20" width="630" height="160" as="geometry" />
        </mxCell>
        <mxCell id="jXuYiFfG_EMtr4uCFGDQ-86" style="edgeStyle=none;rounded=0;orthogonalLoop=1;jettySize=auto;html=1;exitX=0.5;exitY=0;exitDx=0;exitDy=0;" parent="jXuYiFfG_EMtr4uCFGDQ-78" source="jXuYiFfG_EMtr4uCFGDQ-65" target="jXuYiFfG_EMtr4uCFGDQ-65" edge="1">
          <mxGeometry relative="1" as="geometry" />
        </mxCell>
        <mxCell id="jXuYiFfG_EMtr4uCFGDQ-47" value="" style="endArrow=none;html=1;rounded=0;edgeStyle=orthogonalEdgeStyle;" parent="jXuYiFfG_EMtr4uCFGDQ-25" source="jXuYiFfG_EMtr4uCFGDQ-45" edge="1">
          <mxGeometry width="50" height="50" relative="1" as="geometry">
            <mxPoint x="37.81509681209195" y="180" as="sourcePoint" />
            <mxPoint x="130" y="250" as="targetPoint" />
          </mxGeometry>
        </mxCell>
        <mxCell id="jXuYiFfG_EMtr4uCFGDQ-87" value="" style="rounded=1;arcSize=10;dashed=1;strokeColor=#F59D56;fillColor=none;gradientColor=none;dashPattern=8 4;strokeWidth=2;direction=south;" parent="jXuYiFfG_EMtr4uCFGDQ-25" vertex="1">
          <mxGeometry x="-190" width="310" height="140" as="geometry" />
        </mxCell>
        <mxCell id="jXuYiFfG_EMtr4uCFGDQ-27" value="Private subnet" style="points=[[0,0],[0.25,0],[0.5,0],[0.75,0],[1,0],[1,0.25],[1,0.5],[1,0.75],[1,1],[0.75,1],[0.5,1],[0.25,1],[0,1],[0,0.75],[0,0.5],[0,0.25]];outlineConnect=0;gradientColor=none;html=1;whiteSpace=wrap;fontSize=12;fontStyle=0;container=1;pointerEvents=0;collapsible=0;recursiveResize=0;shape=mxgraph.aws4.group;grIcon=mxgraph.aws4.group_security_group;grStroke=0;strokeColor=#00A4A6;fillColor=#E6F6F7;verticalAlign=top;align=left;spacingLeft=30;fontColor=#147EBA;dashed=0;" parent="jXuYiFfG_EMtr4uCFGDQ-23" vertex="1">
          <mxGeometry x="40" y="240" width="280" height="130" as="geometry" />
        </mxCell>
        <mxCell id="jXuYiFfG_EMtr4uCFGDQ-28" value="" style="outlineConnect=0;dashed=0;verticalLabelPosition=bottom;verticalAlign=top;align=center;html=1;shape=mxgraph.aws3.ec2;fillColor=#F58534;gradientColor=none;" parent="jXuYiFfG_EMtr4uCFGDQ-27" vertex="1">
          <mxGeometry x="90" y="18.5" width="76.5" height="93" as="geometry" />
        </mxCell>
        <mxCell id="jXuYiFfG_EMtr4uCFGDQ-45" value="" style="sketch=0;outlineConnect=0;fontColor=#232F3E;gradientColor=none;fillColor=#ED7100;strokeColor=none;dashed=0;verticalLabelPosition=bottom;verticalAlign=top;align=center;html=1;fontSize=12;fontStyle=0;aspect=fixed;pointerEvents=1;shape=mxgraph.aws4.auto_scaling2;" parent="jXuYiFfG_EMtr4uCFGDQ-23" vertex="1">
          <mxGeometry x="340" y="176" width="48" height="48" as="geometry" />
        </mxCell>
        <mxCell id="jXuYiFfG_EMtr4uCFGDQ-48" value="" style="endArrow=none;html=1;rounded=0;edgeStyle=orthogonalEdgeStyle;entryX=0.5;entryY=0;entryDx=0;entryDy=0;entryPerimeter=0;" parent="jXuYiFfG_EMtr4uCFGDQ-23" source="jXuYiFfG_EMtr4uCFGDQ-45" target="jXuYiFfG_EMtr4uCFGDQ-28" edge="1">
          <mxGeometry width="50" height="50" relative="1" as="geometry">
            <mxPoint x="187.52" y="201" as="sourcePoint" />
            <mxPoint x="339.52" y="270" as="targetPoint" />
            <Array as="points">
              <mxPoint x="168" y="200" />
            </Array>
          </mxGeometry>
        </mxCell>
        <mxCell id="jXuYiFfG_EMtr4uCFGDQ-72" value="Security group" style="fillColor=none;strokeColor=#DD3522;verticalAlign=top;fontStyle=0;fontColor=#DD3522;whiteSpace=wrap;html=1;" parent="jXuYiFfG_EMtr4uCFGDQ-23" vertex="1">
          <mxGeometry x="125" y="224" width="130" height="130" as="geometry" />
        </mxCell>
        <mxCell id="jXuYiFfG_EMtr4uCFGDQ-64" value="Internet&#xa;gateway" style="sketch=0;outlineConnect=0;fontColor=#232F3E;gradientColor=none;strokeColor=#232F3E;fillColor=#ffffff;dashed=0;verticalLabelPosition=bottom;verticalAlign=top;align=center;html=1;fontSize=12;fontStyle=0;aspect=fixed;shape=mxgraph.aws4.resourceIcon;resIcon=mxgraph.aws4.internet_gateway;" parent="1" vertex="1">
          <mxGeometry y="430" width="60" height="60" as="geometry" />
        </mxCell>
        <mxCell id="jXuYiFfG_EMtr4uCFGDQ-82" value="" style="sketch=0;outlineConnect=0;fontColor=#232F3E;gradientColor=none;fillColor=#8C4FFF;strokeColor=none;dashed=0;verticalLabelPosition=bottom;verticalAlign=top;align=center;html=1;fontSize=12;fontStyle=0;aspect=fixed;pointerEvents=1;shape=mxgraph.aws4.network_access_control_list;" parent="1" vertex="1">
          <mxGeometry x="370" y="640" width="40" height="40" as="geometry" />
        </mxCell>
        <mxCell id="jXuYiFfG_EMtr4uCFGDQ-88" value="Availability zone" style="sketch=0;outlineConnect=0;gradientColor=none;html=1;whiteSpace=wrap;fontSize=12;fontStyle=0;shape=mxgraph.aws4.group;grIcon=mxgraph.aws4.group_availability_zone;strokeColor=#545B64;fillColor=none;verticalAlign=top;align=left;spacingLeft=30;fontColor=#545B64;dashed=1;" parent="1" vertex="1">
          <mxGeometry x="100" y="220" width="240" height="470" as="geometry" />
        </mxCell>
        <mxCell id="jXuYiFfG_EMtr4uCFGDQ-89" value="Availability zone" style="sketch=0;outlineConnect=0;gradientColor=none;html=1;whiteSpace=wrap;fontSize=12;fontStyle=0;shape=mxgraph.aws4.group;grIcon=mxgraph.aws4.group_availability_zone;strokeColor=#545B64;fillColor=none;verticalAlign=top;align=left;spacingLeft=30;fontColor=#545B64;dashed=1;" parent="1" vertex="1">
          <mxGeometry x="440" y="220" width="240" height="470" as="geometry" />
        </mxCell>
      </root>
    </mxGraphModel>
  </diagram>
</mxfile>
